<?xml version="1.0" encoding="iso-8859-1"?>
<!-- Uploaded to: SVG Repo, www.svgrepo.com, Generator: SVG Repo Mixer Tools -->
<svg height="800px" width="800px" version="1.1" id="Layer_1" xmlns="http://www.w3.org/2000/svg" xmlns:xlink="http://www.w3.org/1999/xlink" 
	 viewBox="0 0 512 512" xml:space="preserve">
<g>
	<path style="fill:#E8EDEE;" d="M494.345,512H17.655C7.901,512,0,504.099,0,494.345V105.931h512v388.414
		C512,504.099,504.099,512,494.345,512"/>
	<path style="fill:#546A79;" d="M512,105.931H0V17.655C0,7.901,7.901,0,17.655,0h476.69C504.099,0,512,7.901,512,17.655V105.931z"/>
	<path style="fill:#ED7161;" d="M88.276,52.966c0-14.627-11.855-26.483-26.483-26.483S35.31,38.338,35.31,52.966
		s11.855,26.483,26.483,26.483S88.276,67.593,88.276,52.966"/>
	<path style="fill:#ECBA16;" d="M176.552,52.966c0-14.627-11.855-26.483-26.483-26.483s-26.483,11.855-26.483,26.483
		s11.855,26.483,26.483,26.483S176.552,67.593,176.552,52.966"/>
	<g>
		<path style="fill:#42B05C;" d="M264.828,52.966c0-14.627-11.855-26.483-26.483-26.483c-14.627,0-26.483,11.855-26.483,26.483
			s11.855,26.483,26.483,26.483C252.972,79.448,264.828,67.593,264.828,52.966"/>
		<path style="fill:#42B05C;" d="M123.586,158.897H52.966c-4.882,0-8.828-3.955-8.828-8.828c0-4.873,3.946-8.828,8.828-8.828h70.621
			c4.882,0,8.828,3.955,8.828,8.828C132.414,154.942,128.468,158.897,123.586,158.897"/>
	</g>
	<path style="fill:#ECBA16;" d="M123.586,264.828H52.966c-4.882,0-8.828-3.955-8.828-8.828s3.946-8.828,8.828-8.828h70.621
		c4.882,0,8.828,3.955,8.828,8.828S128.468,264.828,123.586,264.828"/>
	<path style="fill:#DD342E;" d="M203.034,211.862H79.448c-4.882,0-8.828-3.955-8.828-8.828c0-4.873,3.946-8.828,8.828-8.828h123.586
		c4.882,0,8.828,3.955,8.828,8.828C211.862,207.907,207.916,211.862,203.034,211.862"/>
	<path style="fill:#7383BF;" d="M203.034,317.793H52.966c-4.882,0-8.828-3.955-8.828-8.828s3.946-8.828,8.828-8.828h150.069
		c4.882,0,8.828,3.955,8.828,8.828S207.916,317.793,203.034,317.793"/>
	<path style="fill:#ECBA16;" d="M176.552,370.759H79.448c-4.882,0-8.828-3.955-8.828-8.828s3.946-8.828,8.828-8.828h97.103
		c4.882,0,8.828,3.955,8.828,8.828S181.433,370.759,176.552,370.759"/>
	<path style="fill:#7383BF;" d="M176.552,476.69H79.448c-4.882,0-8.828-3.955-8.828-8.828s3.946-8.828,8.828-8.828h97.103
		c4.882,0,8.828,3.955,8.828,8.828S181.433,476.69,176.552,476.69"/>
	<path style="fill:#42B05C;" d="M229.517,423.724H105.931c-4.882,0-8.828-3.955-8.828-8.828s3.946-8.828,8.828-8.828h123.586
		c4.882,0,8.828,3.955,8.828,8.828S234.399,423.724,229.517,423.724"/>
	<path style="fill:#ED7161;" d="M476.69,388.414V229.517c0-9.754-7.901-17.655-17.655-17.655H300.138
		c-9.754,0-17.655,7.901-17.655,17.655v52.966L256,308.966l26.483,26.483v52.966c0,9.754,7.901,17.655,17.655,17.655h158.897
		C468.789,406.069,476.69,398.168,476.69,388.414"/>
	<g>
		<path style="fill:#FFFFFF;" d="M326.621,370.647c-2.26,0-4.52-0.865-6.241-2.586c-3.452-3.452-3.452-9.031,0-12.482l105.71-105.71
			c3.443-3.443,9.031-3.443,12.482,0c3.443,3.452,3.443,9.039,0,12.482l-105.71,105.71
			C331.14,369.781,328.881,370.647,326.621,370.647"/>
		<path style="fill:#FFFFFF;" d="M432.328,370.647c-2.26,0-4.52-0.865-6.241-2.586l-105.71-105.71
			c-3.443-3.443-3.443-9.031,0-12.482c3.452-3.443,9.039-3.443,12.482,0l105.71,105.71c3.452,3.452,3.452,9.031,0,12.482
			C436.847,369.781,434.587,370.647,432.328,370.647"/>
	</g>
</g>
</svg>